# xmcd
#
# Track frame offsets:
#	150
#	20806
#	40185
#	59796
#	80884
#	105084
#	123232
#	137966
#	167374
#	183232
#	203987
#	217421
#	237990
#	256613
#	273133
#	291813
#	312700
#
# Disc length: 4510 seconds
#
# Revision: 1
# Processed by: cddbd v1.5.1PL2 Copyright (c) Steve Scherf et al.
# Submitted via: dBpowerAMP V4.0
#
DISCID=01119c11
DTITLE=Various Artist - naruto
DYEAR=1900
DGENRE=Acid Punk
TTITLE0=Track01 - me
TTITLE1=Track02 - me
TTITLE2=Track03 - me
TTITLE3=Track04 - me
TTITLE4=Track05 - me
TTITLE5=Track06 - me
TTITLE6=Track07 - me
TTITLE7=Track08 - me
TTITLE8=Track09 - me
TTITLE9=Track10 - me
TTITLE10=Track11 - me
TTITLE11=Track12 - me
TTITLE12=Track13 - me
TTITLE13=Track14 - me
TTITLE14=Track15 - me
TTITLE15=Track16 - me
TTITLE16=Track17 - me
EXTD=
EXTT0=
EXTT1=
EXTT2=
EXTT3=
EXTT4=
EXTT5=
EXTT6=
EXTT7=
EXTT8=
EXTT9=
EXTT10=
EXTT11=
EXTT12=
EXTT13=
EXTT14=
EXTT15=
EXTT16=
PLAYORDER=
